<svg width="147" height="40" viewBox="0 0 147 40" fill="none" xmlns="http://www.w3.org/2000/svg">
<circle cx="24.5756" cy="6.269" r="6.144" fill="#D9E6E4"/>
<path d="M45.0557 17.9693C45.0557 24.6655 30.2188 26.1534 23.2315 26.1534C16.2441 26.1534 4.0957 24.6655 4.0957 17.9693C4.0957 11.2731 11.6491 17.5148 18.6365 17.5148C25.6239 17.5148 45.0557 11.2731 45.0557 17.9693Z" fill="#B1CCC8"/>
<path d="M49.152 31.7947C49.152 38.4062 31.3477 39.8753 22.9629 39.8753C14.5781 39.8753 0 38.4062 0 31.7947C0 25.1831 21.9256 30.9197 30.3104 30.9197C38.6952 30.9197 49.152 25.1831 49.152 31.7947Z" fill="#03594E"/>
<path d="M67.2854 29.36C66.0614 29.36 64.9574 29.152 63.9734 28.736C62.9974 28.32 62.1894 27.728 61.5494 26.96C60.9174 26.184 60.5054 25.268 60.3134 24.212L62.5214 23.864C62.8014 24.952 63.3814 25.804 64.2614 26.42C65.1494 27.028 66.1934 27.332 67.3934 27.332C68.1694 27.332 68.8694 27.212 69.4934 26.972C70.1254 26.724 70.6254 26.372 70.9934 25.916C71.3614 25.46 71.5454 24.92 71.5454 24.296C71.5454 23.912 71.4774 23.584 71.3414 23.312C71.2134 23.032 71.0334 22.796 70.8014 22.604C70.5774 22.404 70.3214 22.236 70.0334 22.1C69.7454 21.964 69.4454 21.852 69.1334 21.764L64.7294 20.456C64.2494 20.312 63.7854 20.132 63.3374 19.916C62.8894 19.692 62.4894 19.416 62.1374 19.088C61.7854 18.752 61.5054 18.352 61.2974 17.888C61.0894 17.416 60.9854 16.86 60.9854 16.22C60.9854 15.196 61.2494 14.324 61.7774 13.604C62.3134 12.876 63.0374 12.32 63.9494 11.936C64.8614 11.552 65.8894 11.364 67.0334 11.372C68.1934 11.38 69.2294 11.588 70.1414 11.996C71.0614 12.396 71.8214 12.972 72.4214 13.724C73.0294 14.476 73.4374 15.376 73.6454 16.424L71.3774 16.82C71.2574 16.116 70.9894 15.512 70.5734 15.008C70.1654 14.496 69.6534 14.104 69.0374 13.832C68.4214 13.552 67.7454 13.408 67.0094 13.4C66.3054 13.392 65.6694 13.504 65.1014 13.736C64.5334 13.968 64.0814 14.292 63.7454 14.708C63.4094 15.116 63.2414 15.588 63.2414 16.124C63.2414 16.652 63.3934 17.08 63.6974 17.408C64.0014 17.728 64.3734 17.984 64.8134 18.176C65.2614 18.36 65.6974 18.512 66.1214 18.632L69.4094 19.58C69.7854 19.684 70.2174 19.828 70.7054 20.012C71.2014 20.196 71.6814 20.456 72.1454 20.792C72.6094 21.12 72.9934 21.56 73.2974 22.112C73.6014 22.656 73.7534 23.344 73.7534 24.176C73.7534 25.008 73.5854 25.748 73.2494 26.396C72.9214 27.044 72.4614 27.588 71.8694 28.028C71.2774 28.46 70.5894 28.788 69.8054 29.012C69.0214 29.244 68.1814 29.36 67.2854 29.36ZM80.6866 29.36C79.4146 29.36 78.3026 29.08 77.3506 28.52C76.4066 27.952 75.6706 27.164 75.1426 26.156C74.6146 25.14 74.3506 23.956 74.3506 22.604C74.3506 21.188 74.6106 19.964 75.1306 18.932C75.6506 17.892 76.3746 17.092 77.3026 16.532C78.2386 15.964 79.3346 15.68 80.5906 15.68C81.8946 15.68 83.0026 15.98 83.9146 16.58C84.8346 17.18 85.5226 18.036 85.9786 19.148C86.4426 20.26 86.6426 21.584 86.5786 23.12H84.4186V22.352C84.3946 20.76 84.0706 19.572 83.4466 18.788C82.8226 17.996 81.8946 17.6 80.6626 17.6C79.3426 17.6 78.3386 18.024 77.6506 18.872C76.9626 19.72 76.6186 20.936 76.6186 22.52C76.6186 24.048 76.9626 25.232 77.6506 26.072C78.3386 26.912 79.3186 27.332 80.5906 27.332C81.4466 27.332 82.1906 27.136 82.8226 26.744C83.4546 26.352 83.9506 25.788 84.3106 25.052L86.3626 25.76C85.8586 26.904 85.0986 27.792 84.0826 28.424C83.0746 29.048 81.9426 29.36 80.6866 29.36ZM75.8986 23.12V21.404H85.4746V23.12H75.8986ZM88.0503 29V16.04H89.9583V19.172L89.6463 18.764C89.7983 18.364 89.9943 17.996 90.2343 17.66C90.4823 17.324 90.7583 17.048 91.0623 16.832C91.3983 16.56 91.7783 16.352 92.2023 16.208C92.6263 16.064 93.0583 15.98 93.4983 15.956C93.9383 15.924 94.3503 15.952 94.7343 16.04V18.044C94.2863 17.924 93.7943 17.892 93.2583 17.948C92.7223 18.004 92.2263 18.2 91.7703 18.536C91.3543 18.832 91.0303 19.192 90.7983 19.616C90.5743 20.04 90.4183 20.5 90.3303 20.996C90.2423 21.484 90.1983 21.984 90.1983 22.496V29H88.0503ZM101.185 29.36C99.9131 29.36 98.8011 29.08 97.8491 28.52C96.9051 27.952 96.1691 27.164 95.6411 26.156C95.1131 25.14 94.8491 23.956 94.8491 22.604C94.8491 21.188 95.1091 19.964 95.6291 18.932C96.1491 17.892 96.8731 17.092 97.8011 16.532C98.7371 15.964 99.8331 15.68 101.089 15.68C102.393 15.68 103.501 15.98 104.413 16.58C105.333 17.18 106.021 18.036 106.477 19.148C106.941 20.26 107.141 21.584 107.077 23.12H104.917V22.352C104.893 20.76 104.569 19.572 103.945 18.788C103.321 17.996 102.393 17.6 101.161 17.6C99.8411 17.6 98.8371 18.024 98.1491 18.872C97.4611 19.72 97.1171 20.936 97.1171 22.52C97.1171 24.048 97.4611 25.232 98.1491 26.072C98.8371 26.912 99.8171 27.332 101.089 27.332C101.945 27.332 102.689 27.136 103.321 26.744C103.953 26.352 104.449 25.788 104.809 25.052L106.861 25.76C106.357 26.904 105.597 27.792 104.581 28.424C103.573 29.048 102.441 29.36 101.185 29.36ZM96.3971 23.12V21.404H105.973V23.12H96.3971ZM117.425 29V22.508C117.425 21.892 117.369 21.3 117.257 20.732C117.153 20.164 116.965 19.656 116.693 19.208C116.429 18.752 116.069 18.392 115.613 18.128C115.165 17.864 114.597 17.732 113.909 17.732C113.373 17.732 112.885 17.824 112.445 18.008C112.013 18.184 111.641 18.456 111.329 18.824C111.017 19.192 110.773 19.656 110.597 20.216C110.429 20.768 110.345 21.42 110.345 22.172L108.941 21.74C108.941 20.484 109.165 19.408 109.613 18.512C110.069 17.608 110.705 16.916 111.521 16.436C112.345 15.948 113.313 15.704 114.425 15.704C115.265 15.704 115.981 15.836 116.573 16.1C117.165 16.364 117.657 16.716 118.049 17.156C118.441 17.588 118.749 18.076 118.973 18.62C119.197 19.156 119.353 19.704 119.441 20.264C119.537 20.816 119.585 21.34 119.585 21.836V29H117.425ZM108.185 29V16.04H110.105V19.508H110.345V29H108.185ZM121.745 13.748V11.54H123.881V13.748H121.745ZM121.745 29V16.04H123.881V29H121.745ZM133.518 29C132.75 29.152 131.99 29.212 131.238 29.18C130.494 29.156 129.83 29.008 129.246 28.736C128.662 28.456 128.218 28.024 127.914 27.44C127.658 26.928 127.518 26.412 127.494 25.892C127.478 25.364 127.47 24.768 127.47 24.104V12.44H129.606V24.008C129.606 24.536 129.61 24.988 129.618 25.364C129.634 25.74 129.718 26.064 129.87 26.336C130.158 26.848 130.614 27.148 131.238 27.236C131.87 27.324 132.63 27.3 133.518 27.164V29ZM124.842 17.804V16.04H133.518V17.804H124.842ZM136.397 34.76L138.905 27.944L138.941 29.96L133.277 16.04H135.521L139.961 27.236H139.193L143.357 16.04H145.529L138.473 34.76H136.397Z" fill="#03594E"/>
</svg>
